<?xml version="1.0"?>
<svg width="1900" height="910" xmlns="http://www.w3.org/2000/svg" xmlns:svg="http://www.w3.org/2000/svg" version="1.1">
 <title>Class Diagram</title>
 <defs>
  <style type="text/css">ul { margin-top: 0px; margin-bottom: 10px; }
ol { margin-top: 0px; margin-bottom: 10px; }
.h1, .h2, .h3, .h4, .h5, .h6, h1, h2, h3, h4, h5, h6 { margin-bottom: .5rem; font-weight: 500; line-height: 1.2; }
h1, h2, h3, h4, h5, h6 { margin-top: 0; margin-bottom: .5rem; }
.h1, h1 { font-size: 2.5rem; }
h2 { font-size: 1.5em; font-weight: bold; }
h3 { font-size: 1.17em; font-weight: bold; }
.h4, h4 { font-size: 1.5rem; }
.h5, h5 { font-size: 1.25rem; }
.h6, h6 { font-size: 1rem; }
p { margin-top: 0; margin-bottom: 1rem; }
a { color: #007bff; }</style>
  <clipPath id="mx-clip-1484-1036-242-26-0">
   <rect height="26" id="svg_9" width="242" x="1485.5" y="392.75"/>
  </clipPath>
  <clipPath id="mx-clip-1484-1062-242-26-0">
   <rect height="26" id="svg_10" width="242" x="1485.5" y="418.75"/>
  </clipPath>
  <clipPath id="mx-clip-1484-1088-242-26-0">
   <rect height="26" id="svg_11" width="242" x="1485.5" y="444.75"/>
  </clipPath>
  <clipPath id="mx-clip-1484-1122-242-26-0">
   <rect height="26" id="svg_12" width="242" x="1485.5" y="478.75"/>
  </clipPath>
  <clipPath id="mx-clip-1484-1148-242-26-0">
   <rect height="26" id="svg_13" width="242" x="1485.5" y="504.75"/>
  </clipPath>
  <clipPath id="mx-clip-1484-1174-242-26-0">
   <rect height="26" id="svg_14" width="242" x="1485.5" y="530.75"/>
  </clipPath>
  <clipPath id="mx-clip-1324-1281-152-26-0">
   <rect height="26" id="svg_15" width="152" x="1325.5" y="637.75"/>
  </clipPath>
  <clipPath id="mx-clip-1324-1307-152-26-0">
   <rect height="26" id="svg_16" width="152" x="1325.5" y="663.75"/>
  </clipPath>
  <clipPath id="mx-clip-1324-1333-152-28-0">
   <rect height="28" id="svg_17" width="152" x="1325.5" y="689.75"/>
  </clipPath>
  <clipPath id="mx-clip-1324-1369-152-26-0">
   <rect height="26" id="svg_18" width="152" x="1325.5" y="725.75"/>
  </clipPath>
  <clipPath id="mx-clip-1324-1395-152-26-0">
   <rect height="26" id="svg_19" width="152" x="1325.5" y="751.75"/>
  </clipPath>
  <clipPath id="mx-clip-1324-1421-152-26-0">
   <rect height="26" id="svg_20" width="152" x="1325.5" y="777.75"/>
  </clipPath>
  <clipPath id="mx-clip-1324-1447-152-26-0">
   <rect height="26" id="svg_21" width="152" x="1325.5" y="803.75"/>
  </clipPath>
  <clipPath id="mx-clip-1529-1286-152-26-0">
   <rect height="26" id="svg_22" width="152" x="1530.5" y="642.75"/>
  </clipPath>
  <clipPath id="mx-clip-1529-1320-152-26-0">
   <rect height="26" id="svg_23" width="152" x="1530.5" y="676.75"/>
  </clipPath>
  <clipPath id="mx-clip-1734-1281-152-24-0">
   <rect height="24" id="svg_24" width="152" x="1735.5" y="637.75"/>
  </clipPath>
  <clipPath id="mx-clip-1734-1305-152-24-0">
   <rect height="24" id="svg_25" width="152" x="1735.5" y="661.75"/>
  </clipPath>
  <clipPath id="mx-clip-1734-1337-152-24-0">
   <rect height="24" id="svg_26" width="152" x="1735.5" y="693.75"/>
  </clipPath>
  <clipPath id="mx-clip-1734-1361-152-24-0">
   <rect height="24" id="svg_27" width="152" x="1735.5" y="717.75"/>
  </clipPath>
  <clipPath id="mx-clip-394-1466-152-20-0">
   <rect height="20" id="svg_28" width="152" x="395.5" y="822.75"/>
  </clipPath>
  <clipPath id="mx-clip-394-1486-152-24-0">
   <rect height="24" id="svg_29" width="152" x="395.5" y="842.75"/>
  </clipPath>
  <clipPath id="mx-clip-394-1510-152-24-0">
   <rect height="24" id="svg_30" width="152" x="395.5" y="866.75"/>
  </clipPath>
  <clipPath id="mx-clip-574-1466-152-24-0">
   <rect height="24" id="svg_31" width="152" x="575.5" y="822.75"/>
  </clipPath>
  <clipPath id="mx-clip-574-1498-152-24-0">
   <rect height="24" id="svg_32" width="152" x="575.5" y="854.75"/>
  </clipPath>
  <clipPath id="mx-clip-574-1522-152-24-0">
   <rect height="24" id="svg_33" width="152" x="575.5" y="878.75"/>
  </clipPath>
  <clipPath id="mx-clip-490-1066-152-24-0">
   <rect height="24" id="svg_34" width="152" x="491.5" y="422.75"/>
  </clipPath>
  <clipPath id="mx-clip-490-1090-152-24-0">
   <rect height="24" id="svg_35" width="152" x="491.5" y="446.75"/>
  </clipPath>
  <clipPath id="mx-clip-490-1122-152-24-0">
   <rect height="24" id="svg_36" width="152" x="491.5" y="478.75"/>
  </clipPath>
  <clipPath id="mx-clip-490-1146-152-24-0">
   <rect height="24" id="svg_37" width="152" x="491.5" y="502.75"/>
  </clipPath>
  <clipPath id="mx-clip-490-1170-152-24-0">
   <rect height="24" id="svg_38" width="152" x="491.5" y="526.75"/>
  </clipPath>
  <clipPath id="mx-clip-490-1194-152-24-0">
   <rect height="24" id="svg_39" width="152" x="491.5" y="550.75"/>
  </clipPath>
  <clipPath id="mx-clip-4-1018-232-24-0">
   <rect height="24" id="svg_40" width="232" x="5.5" y="374.75"/>
  </clipPath>
  <clipPath id="mx-clip-4-1042-232-24-0">
   <rect height="24" id="svg_41" width="232" x="5.5" y="398.75"/>
  </clipPath>
  <clipPath id="mx-clip-4-1066-232-24-0">
   <rect height="24" id="svg_42" width="232" x="5.5" y="422.75"/>
  </clipPath>
  <clipPath id="mx-clip-4-1090-232-24-0">
   <rect height="24" id="svg_43" width="232" x="5.5" y="446.75"/>
  </clipPath>
  <clipPath id="mx-clip-4-1122-232-24-0">
   <rect height="24" id="svg_44" width="232" x="5.5" y="478.75"/>
  </clipPath>
  <clipPath id="mx-clip-4-1146-232-24-0">
   <rect height="24" id="svg_45" width="232" x="5.5" y="502.75"/>
  </clipPath>
  <clipPath id="mx-clip-4-1170-232-24-0">
   <rect height="24" id="svg_46" width="232" x="5.5" y="526.75"/>
  </clipPath>
  <clipPath id="mx-clip-4-1194-232-24-0">
   <rect height="24" id="svg_47" width="232" x="5.5" y="550.75"/>
  </clipPath>
  <clipPath id="mx-clip-791-1066-282-24-0">
   <rect height="24" id="svg_48" width="282" x="824.25" y="47.5"/>
  </clipPath>
  <clipPath id="mx-clip-791-1090-282-24-0">
   <rect height="24" id="svg_49" width="282" x="792.5" y="446.75"/>
  </clipPath>
  <clipPath id="mx-clip-791-1114-282-24-0">
   <rect height="24" id="svg_50" width="282" x="792.5" y="470.75"/>
  </clipPath>
  <clipPath id="mx-clip-791-1138-282-24-0">
   <rect height="24" id="svg_51" width="282" x="792.5" y="494.75"/>
  </clipPath>
  <clipPath id="mx-clip-791-1170-282-24-0">
   <rect height="24" id="svg_52" width="282" x="792.5" y="526.75"/>
  </clipPath>
  <clipPath id="mx-clip-791-1194-282-24-0">
   <rect height="24" id="svg_53" width="282" x="792.5" y="550.75"/>
  </clipPath>
  <clipPath id="mx-clip-791-1218-282-24-0">
   <rect height="24" id="svg_54" width="282" x="792.5" y="574.75"/>
  </clipPath>
  <clipPath id="mx-clip-791-1242-282-24-0">
   <rect height="24" id="svg_55" width="282" x="792.5" y="598.75"/>
  </clipPath>
  <style type="text/css">@import url(&quot;https://fonts.googleapis.com/css2?family=Open+Sans:ital,wght@0,400;0,700;1,400;1,700&amp;display=swap&quot;);
@import url(&quot;https://fonts.googleapis.com/css2?family=Open+Sans:ital,wght@0,400;0,700;1,400;1,700&amp;display=swap&quot;);</style>
 </defs>
 <switch>
  <g id="svg_56" requiredFeatures="http://www.w3.org/TR/SVG11/feature#Extensibility"/>
  <a id="svg_57" transform="translate(0,-5)">
   <text font-size="10px" id="svg_58" text-anchor="middle" x="50%" y="100%"/>
  </a>
 </switch>
 <g class="layer">
  <title>Layer 1</title>
  <g id="svg_377">
   <g id="svg_60">
    <path d="m1606.17,561.42l0,43.63" fill="none" id="svg_61" stroke="#000000" stroke-miterlimit="10"/>
    <path d="m1606.17,610.3l-3.5,-7l3.5,1.75l3.5,-1.75l-3.5,7z" fill="#000000" id="svg_62" stroke="#000000" stroke-miterlimit="10"/>
   </g>
   <g id="svg_63">
    <path d="m1481.5,387.75l0,-26l250,0l0,26" fill="#ffffff" id="svg_64" stroke="#000000" stroke-miterlimit="10"/>
    <path d="m1481.5,387.75l0,174l250,0l0,-174" fill="none" id="svg_65" stroke="#000000" stroke-miterlimit="10"/>
    <path d="m1481.5,387.75l250,0" fill="none" id="svg_66" stroke="#000000" stroke-miterlimit="10"/>
   </g>
   <g id="svg_67">
    <g fill="#000000" font-family="Helvetica" font-size="12px" font-style="italic" id="svg_68" text-anchor="middle">
     <text id="svg_69" x="1606" y="379.25">Kalkulator</text>
    </g>
   </g>
   <g id="svg_70">
    <g clip-path="url(#mx-clip-1484-1036-242-26-0)" fill="#000000" font-family="Helvetica" font-size="12px" id="svg_71">
     <text id="svg_72" x="1487" y="405.25">data: List&lt;&gt;?</text>
    </g>
   </g>
   <g id="svg_73">
    <g clip-path="url(#mx-clip-1484-1062-242-26-0)" fill="#000000" font-family="Helvetica" font-size="12px" id="svg_74">
     <text id="svg_75" x="1487" y="431.25">histrory: std::string</text>
    </g>
   </g>
   <g id="svg_76">
    <g clip-path="url(#mx-clip-1484-1088-242-26-0)" fill="#000000" font-family="Helvetica" font-size="12px" id="svg_77">
     <text id="svg_78" x="1487" y="457.25">calculatingClass: &lt;Type T&gt;</text>
    </g>
   </g>
   <g id="svg_79">
    <path d="m1481.5,469.75l250,0" fill="none" id="svg_80" stroke="#000000" stroke-miterlimit="10"/>
   </g>
   <g id="svg_81">
    <g clip-path="url(#mx-clip-1484-1122-242-26-0)" fill="#000000" font-family="Helvetica" font-size="12px" id="svg_82">
     <text id="svg_83" x="1487" y="491.25">calculate(vector&lt;Type T&gt;):</text>
    </g>
   </g>
   <g id="svg_84">
    <g clip-path="url(#mx-clip-1484-1148-242-26-0)" fill="#000000" font-family="Helvetica" font-size="12px" id="svg_85">
     <text id="svg_86" x="1487" y="517.25">saveHistory(): void</text>
    </g>
   </g>
   <g id="svg_87">
    <g clip-path="url(#mx-clip-1484-1174-242-26-0)" fill="#000000" font-family="Helvetica" font-size="12px" id="svg_88">
     <text id="svg_89" x="1487" y="543.25">loadHistory(QModelIndex): void</text>
    </g>
   </g>
   <g id="svg_90">
    <path d="m1321.5,632.75l0,-26l160,0l0,26" fill="#ffffff" id="svg_91" stroke="#000000" stroke-miterlimit="10"/>
    <path d="m1321.5,632.75l0,192l160,0l0,-192" fill="none" id="svg_92" stroke="#000000" stroke-miterlimit="10"/>
    <path d="m1321.5,632.75l160,0" fill="none" id="svg_93" stroke="#000000" stroke-miterlimit="10"/>
   </g>
   <g id="svg_94">
    <g fill="#000000" font-family="Helvetica" font-size="12px" id="svg_95" text-anchor="middle">
     <text id="svg_96" x="1401" y="624.25">Matrix</text>
    </g>
   </g>
   <g id="svg_97">
    <g clip-path="url(#mx-clip-1324-1281-152-26-0)" fill="#000000" font-family="Helvetica" font-size="12px" id="svg_98">
     <text id="svg_99" x="1327" y="650.25">dimension1: unsigned</text>
    </g>
   </g>
   <g id="svg_100">
    <g clip-path="url(#mx-clip-1324-1307-152-26-0)" fill="#000000" font-family="Helvetica" font-size="12px" id="svg_101">
     <text id="svg_102" x="1327" y="676.25">dimension2: unsigned</text>
    </g>
   </g>
   <g id="svg_103">
    <g clip-path="url(#mx-clip-1324-1333-152-28-0)" fill="#000000" font-family="Helvetica" font-size="12px" id="svg_104">
     <text id="svg_105" x="1327" y="702.25">data: arma::mat</text>
    </g>
   </g>
   <g id="svg_106">
    <path d="m1321.5,716.75l160,0" fill="none" id="svg_107" stroke="#000000" stroke-miterlimit="10"/>
   </g>
   <g id="svg_108">
    <g clip-path="url(#mx-clip-1324-1369-152-26-0)" fill="#000000" font-family="Helvetica" font-size="12px" id="svg_109">
     <text id="svg_110" x="1327" y="738.25">transpose(Matrix): Matrix</text>
    </g>
   </g>
   <g id="svg_111">
    <g clip-path="url(#mx-clip-1324-1395-152-26-0)" fill="#000000" font-family="Helvetica" font-size="12px" id="svg_112">
     <text id="svg_113" x="1327" y="764.25">inverse(Matrix): Matrix</text>
    </g>
   </g>
   <g id="svg_114">
    <g clip-path="url(#mx-clip-1324-1421-152-26-0)" fill="#000000" font-family="Helvetica" font-size="12px" id="svg_115">
     <text id="svg_116" x="1327" y="790.25">ones(): Matrix</text>
    </g>
   </g>
   <g id="svg_117">
    <g clip-path="url(#mx-clip-1324-1447-152-26-0)" fill="#000000" font-family="Helvetica" font-size="12px" id="svg_118">
     <text id="svg_119" x="1327" y="816.25">diag(): Matrix</text>
    </g>
   </g>
   <g id="svg_120">
    <path d="m1526.5,637.75l0,-26l160,0l0,26" fill="#ffffff" id="svg_121" stroke="#000000" stroke-miterlimit="10"/>
    <path d="m1526.5,637.75l0,60l160,0l0,-60" fill="none" id="svg_122" stroke="#000000" stroke-miterlimit="10"/>
    <path d="m1526.5,637.75l160,0" fill="none" id="svg_123" stroke="#000000" stroke-miterlimit="10"/>
   </g>
   <g id="svg_124">
    <g fill="#000000" font-family="Helvetica" font-size="12px" id="svg_125" text-anchor="middle">
     <text id="svg_126" x="1606" y="629.25">Parser</text>
    </g>
   </g>
   <g id="svg_127">
    <g clip-path="url(#mx-clip-1529-1286-152-26-0)" fill="#000000" font-family="Helvetica" font-size="12px" id="svg_128">
     <text id="svg_129" x="1532" y="655.25">expression: char*</text>
    </g>
   </g>
   <g id="svg_130">
    <path d="m1526.5,667.75l160,0" fill="none" id="svg_131" stroke="#000000" stroke-miterlimit="10"/>
   </g>
   <g id="svg_132">
    <g clip-path="url(#mx-clip-1529-1320-152-26-0)" fill="#000000" font-family="Helvetica" font-size="12px" id="svg_133">
     <text id="svg_134" x="1532" y="689.25">evaluate_expr(): double</text>
    </g>
   </g>
   <g id="svg_135">
    <path d="m1731.5,632.75l0,-26l160,0l0,26" fill="#ffffff" id="svg_136" stroke="#000000" stroke-miterlimit="10"/>
    <path d="m1731.5,632.75l0,114l160,0l0,-114" fill="none" id="svg_137" stroke="#000000" stroke-miterlimit="10"/>
    <path d="m1731.5,632.75l160,0" fill="none" id="svg_138" stroke="#000000" stroke-miterlimit="10"/>
   </g>
   <g id="svg_139">
    <g fill="#000000" font-family="Helvetica" font-size="12px" id="svg_140" text-anchor="middle">
     <text id="svg_141" x="1811" y="624.25">Plotter</text>
    </g>
   </g>
   <g id="svg_142">
    <g clip-path="url(#mx-clip-1734-1281-152-24-0)" fill="#000000" font-family="Helvetica" font-size="12px" id="svg_143">
     <text id="svg_144" x="1737" y="650.25">data: vector&lt;double&gt;</text>
    </g>
   </g>
   <g id="svg_145">
    <g clip-path="url(#mx-clip-1734-1305-152-24-0)" fill="#000000" font-family="Helvetica" font-size="12px" id="svg_146">
     <text id="svg_147" x="1737" y="674.25">function: elemFunction</text>
    </g>
   </g>
   <g id="svg_148">
    <path d="m1731.5,684.75l160,0" fill="none" id="svg_149" stroke="#000000" stroke-miterlimit="10"/>
   </g>
   <g id="svg_150">
    <g clip-path="url(#mx-clip-1734-1337-152-24-0)" fill="#000000" font-family="Helvetica" font-size="12px" id="svg_151">
     <text id="svg_152" x="1737" y="706.25">plotData: void(?)</text>
    </g>
   </g>
   <g id="svg_153">
    <g clip-path="url(#mx-clip-1734-1361-152-24-0)" fill="#000000" font-family="Helvetica" font-size="12px" id="svg_154">
     <text id="svg_155" x="1737" y="730.25">plotFunction: void(?)</text>
    </g>
   </g>
   <g id="svg_156">
    <path d="m391.5,817.75l0,-26l160,0l0,26" fill="#ffffff" id="svg_157" stroke="#000000" stroke-miterlimit="10"/>
    <path d="m391.5,817.75l0,82l160,0l0,-82" fill="none" id="svg_158" stroke="#000000" stroke-miterlimit="10"/>
    <path d="m391.5,817.75l160,0" fill="none" id="svg_159" stroke="#000000" stroke-miterlimit="10"/>
   </g>
   <g id="svg_160">
    <g fill="#000000" font-family="Helvetica" font-size="12px" id="svg_161" text-anchor="middle">
     <text id="svg_162" x="471" y="809.25">Course</text>
    </g>
   </g>
   <g id="svg_163">
    <g clip-path="url(#mx-clip-394-1466-152-20-0)" fill="#000000" font-family="Helvetica" font-size="12px" id="svg_164">
     <text id="svg_165" x="397" y="835.25">type: string</text>
    </g>
   </g>
   <g id="svg_166">
    <g clip-path="url(#mx-clip-394-1486-152-24-0)" fill="#000000" font-family="Helvetica" font-size="12px" id="svg_167">
     <text id="svg_168" x="397" y="855.25">grp: set&lt;string&gt;</text>
    </g>
   </g>
   <g id="svg_169">
    <g clip-path="url(#mx-clip-394-1510-152-24-0)" fill="#000000" font-family="Helvetica" font-size="12px" id="svg_170">
     <text id="svg_171" x="397" y="879.25">mod: set&lt;string&gt;</text>
    </g>
   </g>
   <g id="svg_172">
    <path d="m391.5,889.75l160,0" fill="none" id="svg_173" stroke="#000000" stroke-miterlimit="10"/>
   </g>
   <g id="svg_174">
    <path d="m571.5,817.75l0,-26l160,0l0,26" fill="#ffffff" id="svg_175" stroke="#000000" stroke-miterlimit="10"/>
    <path d="m571.5,817.75l0,82l160,0l0,-82" fill="none" id="svg_176" stroke="#000000" stroke-miterlimit="10"/>
    <path d="m571.5,817.75l160,0" fill="none" id="svg_177" stroke="#000000" stroke-miterlimit="10"/>
   </g>
   <g id="svg_178">
    <g fill="#000000" font-family="Helvetica" font-size="12px" id="svg_179" text-anchor="middle">
     <text id="svg_180" x="651" y="809.25">Scraper</text>
    </g>
   </g>
   <g id="svg_181">
    <g clip-path="url(#mx-clip-574-1466-152-24-0)" fill="#000000" font-family="Helvetica" font-size="12px" id="svg_182">
     <text id="svg_183" x="577" y="835.25">baseLink: string</text>
    </g>
   </g>
   <g id="svg_184">
    <path d="m571.5,845.75l160,0" fill="none" id="svg_185" stroke="#000000" stroke-miterlimit="10"/>
   </g>
   <g id="svg_186">
    <g clip-path="url(#mx-clip-574-1498-152-24-0)" fill="#000000" font-family="Helvetica" font-size="12px" id="svg_187">
     <text id="svg_188" x="577" y="867.25">donwloadCourser(): void</text>
    </g>
   </g>
   <g id="svg_189">
    <g clip-path="url(#mx-clip-574-1522-152-24-0)" fill="#000000" font-family="Helvetica" font-size="12px" id="svg_190">
     <text id="svg_191" x="577" y="891.25">downloadModules(): void</text>
    </g>
   </g>
   <g id="svg_192">
    <path d="m487.5,417.75l0,-26l160,0l0,26" fill="#ffffff" id="svg_193" stroke="#000000" stroke-miterlimit="10"/>
    <path d="m487.5,417.75l0,152l160,0l0,-152" fill="none" id="svg_194" stroke="#000000" stroke-miterlimit="10"/>
    <path d="m487.5,417.75l160,0" fill="none" id="svg_195" stroke="#000000" stroke-miterlimit="10"/>
   </g>
   <g id="svg_196">
    <g fill="#000000" font-family="Helvetica" font-size="12px" id="svg_197" text-anchor="middle">
     <text id="svg_198" x="567" y="409.25">Scheduler</text>
    </g>
   </g>
   <g id="svg_199">
    <g clip-path="url(#mx-clip-490-1066-152-24-0)" fill="#000000" font-family="Helvetica" font-size="12px" id="svg_200">
     <text id="svg_201" x="493" y="435.25">couser: Course</text>
    </g>
   </g>
   <g id="svg_202">
    <g clip-path="url(#mx-clip-490-1090-152-24-0)" fill="#000000" font-family="Helvetica" font-size="12px" id="svg_203">
     <text id="svg_204" x="493" y="459.25">scraper: Scraper</text>
    </g>
   </g>
   <g id="svg_205">
    <path d="m487.5,469.75l160,0" fill="none" id="svg_206" stroke="#000000" stroke-miterlimit="10"/>
   </g>
   <g id="svg_207">
    <g clip-path="url(#mx-clip-490-1122-152-24-0)" fill="#000000" font-family="Helvetica" font-size="12px" id="svg_208">
     <text id="svg_209" x="493" y="491.25">changeModule: void</text>
    </g>
   </g>
   <g id="svg_210">
    <g clip-path="url(#mx-clip-490-1146-152-24-0)" fill="#000000" font-family="Helvetica" font-size="12px" id="svg_211">
     <text id="svg_212" x="493" y="515.25">findSchedule(): void</text>
    </g>
   </g>
   <g id="svg_213">
    <g clip-path="url(#mx-clip-490-1170-152-24-0)" fill="#000000" font-family="Helvetica" font-size="12px" id="svg_214">
     <text id="svg_215" x="493" y="539.25">donwloadSchedule(): void</text>
    </g>
   </g>
   <g id="svg_216">
    <g clip-path="url(#mx-clip-490-1194-152-24-0)" fill="#000000" font-family="Helvetica" font-size="12px" id="svg_217">
     <text id="svg_218" x="493" y="563.25">scrapeSchedule(): void</text>
    </g>
   </g>
   <g id="svg_219">
    <path d="m1.5,369.75l0,-26l240,0l0,26" fill="#ffffff" id="svg_220" stroke="#000000" stroke-miterlimit="10"/>
    <path d="m1.5,369.75l0,210l240,0l0,-210" fill="none" id="svg_221" stroke="#000000" stroke-miterlimit="10"/>
    <path d="m1.5,369.75l240,0" fill="none" id="svg_222" stroke="#000000" stroke-miterlimit="10"/>
   </g>
   <g id="svg_223">
    <g fill="#000000" font-family="Helvetica" font-size="12px" id="svg_224" text-anchor="middle">
     <text id="svg_225" x="121" y="361.25">FileManager</text>
    </g>
   </g>
   <g id="svg_226">
    <g clip-path="url(#mx-clip-4-1018-232-24-0)" fill="#000000" font-family="Helvetica" font-size="12px" id="svg_227">
     <text id="svg_228" x="7" y="387.25">currentPath : QString</text>
    </g>
   </g>
   <g id="svg_229">
    <g clip-path="url(#mx-clip-4-1042-232-24-0)" fill="#000000" font-family="Helvetica" font-size="12px" id="svg_230">
     <text id="svg_231" x="7" y="411.25">fileModel : QFileSystemModel*</text>
    </g>
   </g>
   <g id="svg_232">
    <g clip-path="url(#mx-clip-4-1066-232-24-0)" fill="#000000" font-family="Helvetica" font-size="12px" id="svg_233">
     <text id="svg_234" x="7" y="435.25">dirModel : QFileSystemModel*</text>
    </g>
   </g>
   <g id="svg_235">
    <g clip-path="url(#mx-clip-4-1090-232-24-0)" fill="#000000" font-family="Helvetica" font-size="12px" id="svg_236">
     <text id="svg_237" x="7" y="459.25">mainWindow : MainWindow*</text>
    </g>
   </g>
   <g id="svg_238">
    <path d="m1.5,469.75l240,0" fill="none" id="svg_239" stroke="#000000" stroke-miterlimit="10"/>
   </g>
   <g id="svg_240">
    <g clip-path="url(#mx-clip-4-1122-232-24-0)" fill="#000000" font-family="Helvetica" font-size="12px" id="svg_241">
     <text id="svg_242" x="7" y="491.25">renameFolder(QModelIndex, QString): void</text>
    </g>
   </g>
   <g id="svg_243">
    <g clip-path="url(#mx-clip-4-1146-232-24-0)" fill="#000000" font-family="Helvetica" font-size="12px" id="svg_244">
     <text id="svg_245" x="7" y="515.25">deleteFolder(QModelIndex): void</text>
    </g>
   </g>
   <g id="svg_246">
    <g clip-path="url(#mx-clip-4-1170-232-24-0)" fill="#000000" font-family="Helvetica" font-size="12px" id="svg_247">
     <text id="svg_248" x="7" y="539.25">changeDir(QModelIndex): void</text>
    </g>
   </g>
   <g id="svg_249">
    <g clip-path="url(#mx-clip-4-1194-232-24-0)" fill="#000000" font-family="Helvetica" font-size="12px" id="svg_250">
     <text id="svg_251" x="7" y="563.25">createNewFolder(): void</text>
    </g>
   </g>
   <g id="svg_252">
    <path d="m788.5,417.75l0,-26l290,0l0,26" fill="#ffffff" id="svg_253" stroke="#000000" stroke-miterlimit="10"/>
    <path d="m788.5,417.75l0,200l290,0l0,-200" fill="none" id="svg_254" stroke="#000000" stroke-miterlimit="10"/>
    <path d="m788.5,417.75l290,0" fill="none" id="svg_255" stroke="#000000" stroke-miterlimit="10"/>
   </g>
   <g id="svg_256">
    <g fill="#000000" font-family="Helvetica" font-size="12px" id="svg_257" text-anchor="middle">
     <text id="svg_258" x="933" y="409.25">Notes</text>
    </g>
   </g>
   <g id="svg_259">
    <g clip-path="url(#mx-clip-791-1066-282-24-0)" fill="#000000" font-family="Helvetica" font-size="12px" id="svg_260">
     <text id="svg_261" x="825.25" y="149.5">path: QString</text>
    </g>
   </g>
   <g id="svg_262">
    <g clip-path="url(#mx-clip-791-1090-282-24-0)" fill="#000000" font-family="Helvetica" font-size="12px" id="svg_263">
     <text id="svg_264" x="794" y="459.25">QFileSystemModel *model;</text>
    </g>
   </g>
   <g id="svg_265">
    <g clip-path="url(#mx-clip-791-1114-282-24-0)" fill="#000000" font-family="Helvetica" font-size="12px" id="svg_266">
     <text id="svg_267" x="794" y="483.25">navigationAfter: stack&lt;Qstring&gt;</text>
    </g>
   </g>
   <g id="svg_268">
    <g clip-path="url(#mx-clip-791-1138-282-24-0)" fill="#000000" font-family="Helvetica" font-size="12px" id="svg_269">
     <text id="svg_270" x="794" y="507.25">navigationBefore: stack&lt;Qstring&gt;</text>
    </g>
   </g>
   <g id="svg_271">
    <path d="m788.5,517.75l290,0" fill="none" id="svg_272" stroke="#000000" stroke-miterlimit="10"/>
   </g>
   <g id="svg_273">
    <g clip-path="url(#mx-clip-791-1170-282-24-0)" fill="#000000" font-family="Helvetica" font-size="12px" id="svg_274">
     <text id="svg_275" x="794" y="539.25">openFile: void(QString path, QWidget *parent);</text>
    </g>
   </g>
   <g id="svg_276">
    <g clip-path="url(#mx-clip-791-1194-282-24-0)" fill="#000000" font-family="Helvetica" font-size="12px" id="svg_277">
     <text id="svg_278" x="794" y="563.25">copyClicked: void(UI::MainWindow *ui);</text>
    </g>
   </g>
   <g id="svg_279">
    <g clip-path="url(#mx-clip-791-1218-282-24-0)" fill="#000000" font-family="Helvetica" font-size="12px" id="svg_280">
     <text id="svg_281" x="794" y="587.25">pasteClicked: void(UI::MainWindow *ui);</text>
    </g>
   </g>
   <g id="svg_282">
    <g clip-path="url(#mx-clip-791-1242-282-24-0)" fill="#000000" font-family="Helvetica" font-size="12px" id="svg_283">
     <text id="svg_284" x="794" y="611.25">undoClicked: void(UI:MainWindow *ui)</text>
    </g>
   </g>
   <g id="svg_285">
    <path d="m932.83,123.08l0,261.97" fill="none" id="svg_286" stroke="#000000" stroke-miterlimit="10"/>
    <path d="m932.83,390.3l-3.5,-7l3.5,1.75l3.5,-1.75l-3.5,7z" fill="#000000" id="svg_287" stroke="#000000" stroke-miterlimit="10"/>
   </g>
   <g id="svg_288">
    <path d="m1057.83,63.08l548.34,0l0,291.97" fill="none" id="svg_289" stroke="#000000" stroke-miterlimit="10"/>
    <path d="m1606.17,360.3l-3.5,-7l3.5,1.75l3.5,-1.75l-3.5,7z" fill="#000000" id="svg_290" stroke="#000000" stroke-miterlimit="10"/>
   </g>
   <g id="svg_291">
    <path d="m807.83,63.08l-686.66,0l0,275.3" fill="none" id="svg_292" stroke="#000000" stroke-miterlimit="10"/>
    <path d="m121.17,343.63l-3.5,-7l3.5,1.75l3.5,-1.75l-3.5,7z" fill="#000000" id="svg_293" stroke="#000000" stroke-miterlimit="10"/>
   </g>
   <g id="svg_294">
    <path d="m807.83,93.08l-240,0l0,291.97" fill="none" id="svg_295" stroke="#000000" stroke-miterlimit="10"/>
    <path d="m567.83,390.3l-3.5,-7l3.5,1.75l3.5,-1.75l-3.5,7z" fill="#000000" id="svg_296" stroke="#000000" stroke-miterlimit="10"/>
   </g>
   <g id="svg_297">
    <path d="m808.5,27.25l0,-26l250,0l0,26" fill="#ffffff" id="svg_298" stroke="#000000" stroke-miterlimit="10"/>
    <path d="m808.5,27.25l0,96l250,0l0,-96" fill="none" id="svg_299" stroke="#000000" stroke-miterlimit="10"/>
    <path d="m808.5,27.25l250,0" fill="none" id="svg_300" stroke="#000000" stroke-miterlimit="10"/>
   </g>
   <g id="svg_301">
    <g fill="#000000" font-family="Helvetica" font-size="12px" font-style="italic" id="svg_302" text-anchor="middle">
     <text id="svg_303" x="933" y="19.25">mainWindow</text>
    </g>
   </g>
   <g id="svg_304">
    <path d="m808.5,31.75l250,0" fill="none" id="svg_305" stroke="#000000" stroke-miterlimit="10"/>
   </g>
   <g id="svg_324">
    <path d="m808.5,105.75l250,0" fill="none" id="svg_325" stroke="#000000" stroke-miterlimit="10"/>
   </g>
   <g id="svg_326">
    <path d="m487.83,558.08l-56.66,0l0,226.97" fill="none" id="svg_327" stroke="#000000" stroke-miterlimit="10"/>
    <path d="m431.17,790.3l-3.5,-7l3.5,1.75l3.5,-1.75l-3.5,7z" fill="#000000" id="svg_328" stroke="#000000" stroke-miterlimit="10"/>
   </g>
   <g id="svg_329">
    <path d="m647.83,558.08l43.34,0l0,226.97" fill="none" id="svg_330" stroke="#000000" stroke-miterlimit="10"/>
    <path d="m691.17,790.3l-3.5,-7l3.5,1.75l3.5,-1.75l-3.5,7z" fill="#000000" id="svg_331" stroke="#000000" stroke-miterlimit="10"/>
   </g>
   <g id="svg_332">
    <path d="m1481.17,513.08l-120,0l0,86.97" fill="none" id="svg_333" stroke="#000000" stroke-miterlimit="10"/>
    <path d="m1361.17,605.3l-3.5,-7l3.5,1.75l3.5,-1.75l-3.5,7z" fill="#000000" id="svg_334" stroke="#000000" stroke-miterlimit="10"/>
   </g>
   <g id="svg_335">
    <path d="m1731.17,524.75l0,-19l81.66,0l0,95.97" fill="none" id="svg_336" stroke="#000000" stroke-miterlimit="10"/>
    <path d="m1812.83,606.97l-3.5,-7l3.5,1.75l3.5,-1.75l-3.5,7z" fill="#000000" id="svg_337" stroke="#000000" stroke-miterlimit="10"/>
   </g>
   <g id="svg_344">
    <path d="m1606.17,561.42l0,43.63" fill="none" id="svg_345" stroke="#000000" stroke-miterlimit="10"/>
    <path d="m1606.17,610.3l-3.5,-7l3.5,1.75l3.5,-1.75l-3.5,7z" fill="#000000" id="svg_346" stroke="#000000" stroke-miterlimit="10"/>
   </g>
   <g id="svg_347">
    <path d="m932.83,123.08l0,261.97" fill="none" id="svg_348" stroke="#000000" stroke-miterlimit="10"/>
    <path d="m932.83,390.3l-3.5,-7l3.5,1.75l3.5,-1.75l-3.5,7z" fill="#000000" id="svg_349" stroke="#000000" stroke-miterlimit="10"/>
   </g>
   <g id="svg_353">
    <path d="m807.83,63.08l-686.66,0l0,275.3" fill="none" id="svg_354" stroke="#000000" stroke-miterlimit="10"/>
    <path d="m121.17,343.63l-3.5,-7l3.5,1.75l3.5,-1.75l-3.5,7z" fill="#000000" id="svg_355" stroke="#000000" stroke-miterlimit="10"/>
   </g>
   <g id="svg_356">
    <path d="m807.83,93.08l-240,0l0,291.97" fill="none" id="svg_357" stroke="#000000" stroke-miterlimit="10"/>
    <path d="m567.83,390.3l-3.5,-7l3.5,1.75l3.5,-1.75l-3.5,7z" fill="#000000" id="svg_358" stroke="#000000" stroke-miterlimit="10"/>
   </g>
   <g id="svg_359">
    <path d="m487.83,558.08l-56.66,0l0,226.97" fill="none" id="svg_360" stroke="#000000" stroke-miterlimit="10"/>
    <path d="m431.17,790.3l-3.5,-7l3.5,1.75l3.5,-1.75l-3.5,7z" fill="#000000" id="svg_361" stroke="#000000" stroke-miterlimit="10"/>
   </g>
   <g id="svg_362">
    <path d="m647.83,558.08l43.34,0l0,226.97" fill="none" id="svg_363" stroke="#000000" stroke-miterlimit="10"/>
    <path d="m691.17,790.3l-3.5,-7l3.5,1.75l3.5,-1.75l-3.5,7z" fill="#000000" id="svg_364" stroke="#000000" stroke-miterlimit="10"/>
   </g>
   <g id="svg_365">
    <path d="m1481.17,513.08l-120,0l0,86.97" fill="none" id="svg_366" stroke="#000000" stroke-miterlimit="10"/>
    <path d="m1361.17,605.3l-3.5,-7l3.5,1.75l3.5,-1.75l-3.5,7z" fill="#000000" id="svg_367" stroke="#000000" stroke-miterlimit="10"/>
   </g>
   <g id="svg_368">
    <path d="m1731.17,524.75l0,-19l81.66,0l0,95.97" fill="none" id="svg_369" stroke="#000000" stroke-miterlimit="10"/>
    <path d="m1812.83,606.97l-3.5,-7l3.5,1.75l3.5,-1.75l-3.5,7z" fill="#000000" id="svg_370" stroke="#000000" stroke-miterlimit="10"/>
   </g>
   <text fill="#000000" font-family="Helvetica" font-size="12" id="svg_372" stroke="#000000" stroke-width="0" text-anchor="middle" x="829" xml:space="preserve" y="435">path: QString</text>
   <text fill="#000000" font-family="Helvetica" font-size="12" id="svg_373" stroke="#000000" stroke-width="0" text-anchor="middle" x="867" xml:space="preserve" y="46.25">ui : Ui::MainWindow</text>
   <text fill="#000000" font-family="Helvetica" font-size="12" id="svg_374" stroke="#000000" stroke-width="0" text-anchor="middle" x="883" xml:space="preserve" y="62.75">fileManager : FileManager</text>
   <text fill="#000000" font-family="Helvetica" font-size="12" id="svg_375" stroke="#000000" stroke-width="0" text-anchor="middle" x="848.75" xml:space="preserve" y="77.75">notes : Notes</text>
  </g>
 </g>
</svg>